<svg version="1.2" xmlns="http://www.w3.org/2000/svg" viewBox="0 0 748 648" width="150" height="130">
	<title>v1033-a-01-a-ai</title>
	<style>
		.s0 { fill: none;stroke: #272726;stroke-linecap: round;stroke-linejoin: round;stroke-width: 16 } 
		.s1 { fill: #f6a319 } 
	</style>
	<g id="Graphic Elements">
		<g id="&lt;Group&gt;">
			<path id="&lt;Path&gt;" class="s0" d="m375.6 17.9v463.9h-354.7v-304.7z"/>
			<path id="&lt;Path&gt;" class="s0" d="m730.4 481.8v-304.7l-354.8-159.2"/>
			<path id="&lt;Path&gt;" class="s0" d="m659.1 481.8v-182.2l-212.2-95.2v277.4"/>
		</g>
	</g>
	<path id="CONSIGNMENT" class="s1" aria-label="CONSIGNMENT"  d="m62.8 635.4q-3.3 2.6-9.9 4.4-6.6 1.9-12.9 1.9-10.6 0-18.9-4.6-8.3-4.7-13.1-13.1-4.7-8.3-4.7-18.9 0-11 4.5-19 4.8-8 13.1-12.2 8.4-4.4 19.4-4.4 4.6 0 9.2 0.8 4.8 0.8 8.7 2.7 2 1 2.9 2.7 1 1.6 1 3.4 0 2.8-2.1 5.1-1.8 2.3-5.1 2.3-1.3 0-2.9-0.6-3-1.1-6.6-1.8-3.6-0.9-6.3-0.9-8.8 0-14.8 6-5.7 5.9-5.7 15.9 0 10.8 5.9 16.9 6.1 6.1 15.6 6.1 4 0 8.4-1.4 4.4-1.3 7.1-3.4 1.9-1.2 4.1-1.2 2.9 0 4.6 2.1 1.9 1.9 1.9 4.8 0 3.7-3.4 6.4zm46.5 6.3q-10 0-18.2-4.8-7.9-4.9-12.7-13.2-4.6-8.3-4.6-18.4 0-10.3 4.6-18.3 4.8-8.2 12.7-12.8 8-4.7 18.2-4.7 10.2 0 18.1 4.7 7.9 4.6 12.4 12.8 4.6 8 4.6 18.3 0 10.2-4.6 18.6-4.6 8.1-12.6 13-7.8 4.8-17.9 4.8zm0-13.6q8.7 0 14.1-6.5 5.7-6.4 5.7-16.3 0-9.8-5.7-16.1-5.4-6.3-14.1-6.3-8.8 0-14.6 6.3-5.6 6.3-5.6 16.1 0 9.9 5.6 16.3 5.8 6.5 14.6 6.5zm54.6 13.6q-3.4 0-5.6-1.9-2-2-2-5.2v-55.3q0-4.4 2.7-6.6 2.7-2.4 6.1-2.4 2.4 0 4.6 1.2 2.2 1 3.7 3.4l24.5 36.9q0.7 1.2 2 1.2 1.7 0 1.7-2.1l-1.1-33.5q-0.2-3.4 2-5.2 2.2-1.9 5.6-1.9 3.4 0 5.4 1.9 2.3 1.8 2.3 5.2v55.1q0 4.3-2.8 6.6-2.7 2.4-6.1 2.4-2.2 0-4.4-1-2.2-1.2-3.7-3.6l-24.4-38q-0.6-1.2-2-1.2-1.9 0-1.9 2.2l1.1 34.7q0.1 3.2-2.1 5.2-2.2 1.9-5.6 1.9zm90.1 0q-7.8 0-14.6-2.6-6.8-2.7-10.7-7.1-1.9-2-1.9-4.7 0-2.9 2.2-5.2 2.2-2.2 5.3-2.2 2.9 0 4.9 2.1 2.9 2.7 7.3 4.2 4.4 1.6 8.7 1.6 4.4 0 7.6-1.9 3.3-2 3.3-6.3 0-3.6-3.1-5.4-2.9-2.1-9.8-3.3-12.5-2-18.7-6.8-6.3-4.9-6.3-13.7 0-9.6 7.3-15.2 7.3-5.7 19.2-5.7 12.2 0 19.5 6.2 2.9 2.4 2.9 5.7 0 2.7-2.2 4.7-2 1.9-4.9 1.9-2.2 0-4.1-1.2-6.5-4.1-13.6-4.1-4.2 0-7.1 1.7-2.9 1.7-2.9 5.1 0 3.6 4.4 5.6 4.6 2.1 13.3 3.8 4.7 0.8 9.3 3 4.8 2.1 7.8 6.3 3.3 4.3 3.3 11.6 0 9.7-7.5 15.8-7.3 6.1-18.9 6.1zm46.8 0q-3.3 0-5.5-2-2.2-2.1-2.2-5.1v-57q0-3.2 2.2-5.3 2.2-2 5.5-2 3.4 0 5.4 2 2.2 2.1 2.2 5.3v57q0 3.2-2.2 5.2-2 1.9-5.4 1.9zm56.2 0q-10 0-18.2-4.8-8.1-4.7-12.9-12.9-4.7-8.1-4.7-18.5 0-10.4 4.5-18.4 4.8-8.1 13.1-12.9 8.4-4.7 18.9-4.7 7.5 0 13.4 1.8 6.2 1.9 11.3 6 2.7 2.2 2.7 5.7 0 2.9-2.1 5-2 2-4.9 2-1.9 0-4.2-1.5-3.8-2.4-7.7-3.7-3.9-1.6-8.3-1.6-9.4 0-15.5 6.3-5.9 6.1-5.9 16 0 10.2 5.7 16.3 5.8 6.1 14.8 6.1 8.4 0 13.6-3.2 5.5-3.4 5.5-8.7 0-1.3-1.2-1.3h-11.4q-3.2 0-5.3-1.9-1.9-1.9-1.9-4.9 0-2.9 1.9-4.8 2.1-1.9 5.3-1.9h18.7q4.6 0 6.6 2.3 2.1 2 2.1 6.9 0 14.3-9.4 22.8-9.2 8.5-24.5 8.5zm53.4 0q-3.4 0-5.6-1.9-2-2-2-5.2v-55.3q0-4.4 2.7-6.6 2.7-2.4 6.1-2.4 2.4 0 4.6 1.2 2.2 1 3.7 3.4l24.5 36.9q0.7 1.2 2 1.2 1.7 0 1.7-2.1l-1.1-33.5q-0.2-3.4 2-5.2 2.2-1.9 5.6-1.9 3.4 0 5.4 1.9 2.3 1.8 2.3 5.2v55.1q0 4.3-2.8 6.6-2.7 2.4-6.1 2.4-2.2 0-4.4-1-2.2-1.2-3.7-3.6l-24.4-38q-0.6-1.2-2-1.2-1.9 0-1.9 2.2l1.1 34.7q0.1 3.2-2.1 5.2-2.2 1.9-5.6 1.9zm72.1 0q-3.4 0-5.8-2.6-2.2-2.5-1.7-5.9l7.1-54.6q0.6-3.7 3.1-5.9 2.6-2.4 6.1-2.4 7.3 0 9.5 6.3l11.6 33.3q0.9 1.7 1.7 1.7 1.2 0 1.7-1.7l11.6-33.3q2.2-6.3 9.3-6.3 3.9 0 6.3 2.4 2.6 2.2 3.1 5.9l7.1 54.6q0.5 3.4-1.9 5.9-2.2 2.6-5.6 2.6-3 0-5.2-1.9-2.1-2-2.4-5.1l-2.6-35.5q-0.1-2-1.3-2-1.2 0-1.7 1.7l-9.9 27.7q-2.4 6.3-8.5 6.3-2.4 0-4.8-1.7-2.2-1.7-3.5-4.5l-9.9-27.5q-0.5-1.5-1.7-1.5-1 0-1.3 2l-2.8 35q-0.1 3.1-2.3 5.1-2.3 1.9-5.3 1.9zm121.4-1.7h-26.9q-4.9 0-8-3.1-3-3-3-7.9v-47.3q0-4.9 2.8-7.7 2.9-2.9 7.7-2.9h25.7q7.1 0 7.1 6.9 0 2.8-2 4.9-2.1 1.9-5.1 1.9h-17.5q-3.4 0-3.4 3.3v6.9q0 3.4 3.4 3.4h14.9q3.4 0 5.3 1.8 1.9 1.9 1.9 4.9 0 2.8-2.3 4.8-2 2.1-4.9 2.1h-14.9q-3.4 0-3.4 3.4v7.4q0 3.4 3.4 3.4h19.2q3.2 0 5.1 1.9 2 1.9 2 5.1 0 2.9-2 4.9-2.1 1.9-5.1 1.9zm26.7 1.7q-3.4 0-5.7-1.9-2-2-2-5.2v-55.3q0-4.4 2.7-6.6 2.7-2.4 6.1-2.4 2.4 0 4.6 1.2 2.2 1 3.8 3.4l24.5 36.9q0.6 1.2 2 1.2 1.7 0 1.7-2.1l-1.2-33.5q-0.2-3.4 2-5.2 2.3-1.9 5.7-1.9 3.4 0 5.4 1.9 2.2 1.8 2.2 5.2v55.1q0 4.3-2.7 6.6-2.7 2.4-6.1 2.4-2.2 0-4.5-1-2.2-1.2-3.7-3.6l-24.3-38q-0.7-1.2-2-1.2-1.9 0-1.9 2.2l1 34.7q0.2 3.2-2 5.2-2.2 1.9-5.6 1.9zm89.2 0q-3.2 0-5.4-1.9-2.2-2-2.2-5.2v-44.4q0-5.1-5.1-5.1h-8.4q-3 0-5.1-1.9-1.8-2-1.8-5.1 0-3 1.8-4.9 2.1-2.1 5.1-2.1h42q3.2 0 5.1 2.1 2.1 1.9 2.1 4.9 0 3.1-2.1 5.1-1.9 1.9-5.1 1.9h-8.1q-5.1 0-5.1 5.1v44.4q0 3.2-2.3 5.2-2 1.9-5.4 1.9z"/>
</svg>